<svg width="1500" height="500" viewBox="0 0 1500 500" fill="none" xmlns="http://www.w3.org/2000/svg">
<rect width="1500" height="500" fill="white"/>
<path d="M152 250V374C152 377.314 154.686 380 158 380H282" stroke="black" stroke-width="11" stroke-linecap="round"/>
<path d="M412 250V126C412 122.686 409.314 120 406 120H282" stroke="black" stroke-width="11" stroke-linecap="round"/>
<circle cx="282" cy="250" r="32" fill="black"/>
<path d="M617.722 151.8H634.774L684.754 289H670.152L659.47 259.6H593.124L582.442 289H567.84L617.722 151.8ZM598.122 245.88H654.374L626.248 168.656L598.122 245.88ZM696.557 289L723.115 151.8H733.111L771.527 252.74L809.747 151.8H819.743L846.399 289H832.385L812.099 184.042L775.839 279.984H767.019L730.759 184.042L710.473 289H696.557ZM917.893 291.548C910.576 291.548 903.487 290.405 896.627 288.118C889.832 285.831 883.887 282.565 878.791 278.318C873.695 274.071 870.102 269.008 868.011 263.128L880.849 258.326C882.286 262.377 884.9 265.872 888.689 268.812C892.544 271.687 897.019 273.908 902.115 275.476C907.276 277.044 912.536 277.828 917.893 277.828C924.165 277.828 930.012 276.783 935.435 274.692C940.858 272.601 945.235 269.694 948.567 265.97C951.899 262.181 953.565 257.738 953.565 252.642C953.565 247.481 951.834 243.234 948.371 239.902C944.908 236.57 940.433 233.957 934.945 232.062C929.522 230.102 923.838 228.599 917.893 227.554C908.55 225.921 900.155 223.699 892.707 220.89C885.324 218.081 879.477 214.128 875.165 209.032C870.853 203.871 868.697 197.076 868.697 188.648C868.697 180.743 870.984 173.883 875.557 168.068C880.13 162.253 886.141 157.745 893.589 154.544C901.102 151.343 909.204 149.742 917.893 149.742C925.014 149.742 931.972 150.853 938.767 153.074C945.562 155.295 951.54 158.529 956.701 162.776C961.928 167.023 965.684 172.217 967.971 178.358L954.937 183.062C953.5 178.946 950.854 175.451 946.999 172.576C943.21 169.636 938.767 167.415 933.671 165.912C928.575 164.344 923.316 163.56 917.893 163.56C911.686 163.495 905.872 164.54 900.449 166.696C895.092 168.787 890.747 171.727 887.415 175.516C884.083 179.24 882.417 183.617 882.417 188.648C882.417 194.528 883.952 199.069 887.023 202.27C890.159 205.406 894.406 207.758 899.763 209.326C905.12 210.894 911.164 212.299 917.893 213.54C926.648 215.043 934.782 217.395 942.295 220.596C949.808 223.732 955.852 227.946 960.425 233.238C964.998 238.465 967.285 244.933 967.285 252.642C967.285 260.482 964.998 267.342 960.425 273.222C955.852 279.037 949.808 283.545 942.295 286.746C934.847 289.947 926.713 291.548 917.893 291.548Z" fill="black"/>
<path d="M574.616 385.624C572.824 385.624 571.088 385.344 569.408 384.784C567.744 384.224 566.288 383.424 565.04 382.384C563.792 381.344 562.912 380.104 562.4 378.664L565.544 377.488C565.896 378.48 566.536 379.336 567.464 380.056C568.408 380.76 569.504 381.304 570.752 381.688C572.016 382.072 573.304 382.264 574.616 382.264C576.152 382.264 577.584 382.008 578.912 381.496C580.24 380.984 581.312 380.272 582.128 379.36C582.944 378.432 583.352 377.344 583.352 376.096C583.352 374.832 582.928 373.792 582.08 372.976C581.232 372.16 580.136 371.52 578.792 371.056C577.464 370.576 576.072 370.208 574.616 369.952C572.328 369.552 570.272 369.008 568.448 368.32C566.64 367.632 565.208 366.664 564.152 365.416C563.096 364.152 562.568 362.488 562.568 360.424C562.568 358.488 563.128 356.808 564.248 355.384C565.368 353.96 566.84 352.856 568.664 352.072C570.504 351.288 572.488 350.896 574.616 350.896C576.36 350.896 578.064 351.168 579.728 351.712C581.392 352.256 582.856 353.048 584.12 354.088C585.4 355.128 586.32 356.4 586.88 357.904L583.688 359.056C583.336 358.048 582.688 357.192 581.744 356.488C580.816 355.768 579.728 355.224 578.48 354.856C577.232 354.472 575.944 354.28 574.616 354.28C573.096 354.264 571.672 354.52 570.344 355.048C569.032 355.56 567.968 356.28 567.152 357.208C566.336 358.12 565.928 359.192 565.928 360.424C565.928 361.864 566.304 362.976 567.056 363.76C567.824 364.528 568.864 365.104 570.176 365.488C571.488 365.872 572.968 366.216 574.616 366.52C576.76 366.888 578.752 367.464 580.592 368.248C582.432 369.016 583.912 370.048 585.032 371.344C586.152 372.624 586.712 374.208 586.712 376.096C586.712 378.016 586.152 379.696 585.032 381.136C583.912 382.56 582.432 383.664 580.592 384.448C578.768 385.232 576.776 385.624 574.616 385.624ZM604.207 364.36H598.471L598.447 385H595.087L595.111 364.36H590.767V361H595.111L595.087 353.464H598.447L598.471 361H604.207V364.36ZM608.489 385V361H611.849V364.312C612.697 363.096 613.801 362.128 615.161 361.408C616.521 360.688 618.001 360.328 619.601 360.328C620.529 360.328 621.425 360.448 622.289 360.688L620.921 364.024C620.249 363.816 619.593 363.712 618.953 363.712C617.657 363.712 616.465 364.032 615.377 364.672C614.305 365.312 613.449 366.168 612.809 367.24C612.169 368.312 611.849 369.504 611.849 370.816V385H608.489ZM634.612 385.624C632.404 385.624 630.388 385.056 628.564 383.92C626.756 382.784 625.308 381.264 624.22 379.36C623.148 377.44 622.612 375.32 622.612 373C622.612 371.24 622.924 369.6 623.548 368.08C624.172 366.544 625.028 365.2 626.116 364.048C627.22 362.88 628.5 361.968 629.956 361.312C631.412 360.656 632.964 360.328 634.612 360.328C636.388 360.328 638.02 360.68 639.508 361.384C641.012 362.088 642.3 363.072 643.372 364.336C644.46 365.6 645.276 367.08 645.82 368.776C646.38 370.472 646.612 372.304 646.516 374.272H626.164C626.356 375.792 626.836 377.152 627.604 378.352C628.388 379.552 629.38 380.504 630.58 381.208C631.796 381.896 633.14 382.248 634.612 382.264C636.212 382.264 637.652 381.848 638.932 381.016C640.228 380.184 641.268 379.04 642.052 377.584L645.46 378.376C644.5 380.504 643.052 382.248 641.116 383.608C639.18 384.952 637.012 385.624 634.612 385.624ZM626.068 371.56H643.132C643.02 370.072 642.564 368.712 641.764 367.48C640.98 366.232 639.964 365.24 638.716 364.504C637.468 363.752 636.1 363.376 634.612 363.376C633.124 363.376 631.764 363.744 630.532 364.48C629.3 365.2 628.292 366.184 627.508 367.432C626.724 368.664 626.244 370.04 626.068 371.56ZM670.124 361H673.484V385H670.124L670.004 380.536C669.22 382.056 668.124 383.288 666.716 384.232C665.308 385.16 663.628 385.624 661.676 385.624C659.916 385.624 658.268 385.296 656.732 384.64C655.196 383.968 653.844 383.048 652.676 381.88C651.508 380.712 650.596 379.36 649.94 377.824C649.284 376.288 648.956 374.64 648.956 372.88C648.956 371.152 649.276 369.528 649.916 368.008C650.572 366.488 651.468 365.152 652.604 364C653.756 362.848 655.084 361.952 656.588 361.312C658.108 360.656 659.732 360.328 661.46 360.328C663.46 360.328 665.204 360.808 666.692 361.768C668.18 362.712 669.364 363.952 670.244 365.488L670.124 361ZM661.604 382.36C663.316 382.36 664.788 381.944 666.02 381.112C667.252 380.264 668.196 379.128 668.852 377.704C669.524 376.28 669.86 374.712 669.86 373C669.86 371.24 669.524 369.656 668.852 368.248C668.18 366.824 667.228 365.696 665.996 364.864C664.764 364.032 663.3 363.616 661.604 363.616C659.908 363.616 658.356 364.04 656.948 364.888C655.556 365.72 654.444 366.848 653.612 368.272C652.796 369.696 652.388 371.272 652.388 373C652.388 374.744 652.812 376.328 653.66 377.752C654.508 379.16 655.628 380.28 657.02 381.112C658.428 381.944 659.956 382.36 661.604 382.36ZM678.286 385V361H681.646V364.312C682.51 363.096 683.614 362.128 684.958 361.408C686.302 360.688 687.774 360.328 689.374 360.328C691.182 360.328 692.838 360.776 694.342 361.672C695.846 362.552 697.022 363.728 697.87 365.2C698.718 363.728 699.886 362.552 701.374 361.672C702.862 360.776 704.51 360.328 706.318 360.328C708.126 360.328 709.774 360.768 711.262 361.648C712.75 362.528 713.934 363.712 714.814 365.2C715.694 366.688 716.134 368.336 716.134 370.144V385H712.774V370.888C712.774 369.608 712.462 368.424 711.838 367.336C711.214 366.248 710.374 365.376 709.318 364.72C708.278 364.048 707.118 363.712 705.838 363.712C704.558 363.712 703.39 364.024 702.334 364.648C701.294 365.256 700.462 366.104 699.838 367.192C699.214 368.264 698.902 369.496 698.902 370.888V385H695.542V370.888C695.542 369.496 695.23 368.264 694.606 367.192C693.982 366.104 693.142 365.256 692.086 364.648C691.03 364.024 689.862 363.712 688.582 363.712C687.318 363.712 686.158 364.048 685.102 364.72C684.046 365.376 683.206 366.248 682.582 367.336C681.958 368.424 681.646 369.608 681.646 370.888V385H678.286ZM721.271 385V349H724.631V385H721.271ZM730.411 361H733.771V385H730.411V361ZM732.115 356.8C731.571 356.8 731.107 356.624 730.723 356.272C730.355 355.904 730.171 355.448 730.171 354.904C730.171 354.36 730.355 353.912 730.723 353.56C731.107 353.192 731.571 353.008 732.115 353.008C732.643 353.008 733.091 353.192 733.459 353.56C733.843 353.912 734.035 354.36 734.035 354.904C734.035 355.448 733.851 355.904 733.483 356.272C733.115 356.624 732.659 356.8 732.115 356.8ZM760.386 370.144V385H757.026V370.816C757.026 369.504 756.706 368.312 756.066 367.24C755.426 366.168 754.57 365.312 753.498 364.672C752.426 364.032 751.234 363.712 749.922 363.712C748.626 363.712 747.434 364.032 746.346 364.672C745.274 365.312 744.418 366.168 743.778 367.24C743.138 368.312 742.818 369.504 742.818 370.816V385H739.458V361H742.818V364.312C743.666 363.096 744.77 362.128 746.13 361.408C747.49 360.688 748.97 360.328 750.57 360.328C752.378 360.328 754.026 360.768 755.514 361.648C757.002 362.528 758.186 363.712 759.066 365.2C759.946 366.688 760.386 368.336 760.386 370.144ZM775.284 385.624C773.076 385.624 771.06 385.056 769.236 383.92C767.428 382.784 765.98 381.264 764.892 379.36C763.82 377.44 763.284 375.32 763.284 373C763.284 371.24 763.596 369.6 764.22 368.08C764.844 366.544 765.7 365.2 766.788 364.048C767.892 362.88 769.172 361.968 770.628 361.312C772.084 360.656 773.636 360.328 775.284 360.328C777.06 360.328 778.692 360.68 780.18 361.384C781.684 362.088 782.972 363.072 784.044 364.336C785.132 365.6 785.948 367.08 786.492 368.776C787.052 370.472 787.284 372.304 787.188 374.272H766.836C767.028 375.792 767.508 377.152 768.276 378.352C769.06 379.552 770.052 380.504 771.252 381.208C772.468 381.896 773.812 382.248 775.284 382.264C776.884 382.264 778.324 381.848 779.604 381.016C780.9 380.184 781.94 379.04 782.724 377.584L786.132 378.376C785.172 380.504 783.724 382.248 781.788 383.608C779.852 384.952 777.684 385.624 775.284 385.624ZM766.74 371.56H783.804C783.692 370.072 783.236 368.712 782.436 367.48C781.652 366.232 780.636 365.24 779.388 364.504C778.14 363.752 776.772 363.376 775.284 363.376C773.796 363.376 772.436 363.744 771.204 364.48C769.972 365.2 768.964 366.184 768.18 367.432C767.396 368.664 766.916 370.04 766.74 371.56ZM810.82 349H814.18V385H810.82V380.512C809.988 382.048 808.844 383.288 807.388 384.232C805.948 385.16 804.236 385.624 802.252 385.624C800.508 385.624 798.876 385.296 797.356 384.64C795.836 383.984 794.492 383.08 793.324 381.928C792.172 380.76 791.268 379.416 790.612 377.896C789.956 376.376 789.628 374.744 789.628 373C789.628 371.256 789.956 369.624 790.612 368.104C791.268 366.568 792.172 365.224 793.324 364.072C794.492 362.904 795.836 361.992 797.356 361.336C798.876 360.68 800.508 360.352 802.252 360.352C804.236 360.352 805.948 360.824 807.388 361.768C808.844 362.696 809.988 363.92 810.82 365.44V349ZM802.276 382.36C803.988 382.36 805.46 381.944 806.692 381.112C807.924 380.264 808.868 379.128 809.524 377.704C810.196 376.28 810.532 374.712 810.532 373C810.532 371.24 810.196 369.656 809.524 368.248C808.852 366.824 807.9 365.696 806.668 364.864C805.436 364.032 803.972 363.616 802.276 363.616C800.58 363.616 799.036 364.04 797.644 364.888C796.252 365.72 795.14 366.848 794.308 368.272C793.476 369.696 793.06 371.272 793.06 373C793.06 374.744 793.484 376.328 794.332 377.752C795.18 379.16 796.3 380.28 797.692 381.112C799.1 381.944 800.628 382.36 802.276 382.36ZM842.73 351.4H846.906L859.146 385H855.57L852.954 377.8H836.706L834.09 385H830.514L842.73 351.4ZM837.93 374.44H851.706L844.818 355.528L837.93 374.44ZM873.503 364.36H867.767L867.743 385H864.383L864.407 364.36H860.063V361H864.407L864.383 353.464H867.743L867.767 361H873.503V364.36ZM890.05 364.36H884.314L884.29 385H880.93L880.954 364.36H876.61V361H880.954L880.93 353.464H884.29L884.314 361H890.05V364.36ZM904.237 385.624C902.029 385.624 900.013 385.056 898.189 383.92C896.381 382.784 894.933 381.264 893.845 379.36C892.773 377.44 892.237 375.32 892.237 373C892.237 371.24 892.549 369.6 893.173 368.08C893.797 366.544 894.653 365.2 895.741 364.048C896.845 362.88 898.125 361.968 899.581 361.312C901.037 360.656 902.589 360.328 904.237 360.328C906.013 360.328 907.645 360.68 909.133 361.384C910.637 362.088 911.925 363.072 912.997 364.336C914.085 365.6 914.901 367.08 915.445 368.776C916.005 370.472 916.237 372.304 916.141 374.272H895.789C895.981 375.792 896.461 377.152 897.229 378.352C898.013 379.552 899.005 380.504 900.205 381.208C901.421 381.896 902.765 382.248 904.237 382.264C905.837 382.264 907.277 381.848 908.557 381.016C909.853 380.184 910.893 379.04 911.677 377.584L915.085 378.376C914.125 380.504 912.677 382.248 910.741 383.608C908.805 384.952 906.637 385.624 904.237 385.624ZM895.693 371.56H912.757C912.645 370.072 912.189 368.712 911.389 367.48C910.605 366.232 909.589 365.24 908.341 364.504C907.093 363.752 905.725 363.376 904.237 363.376C902.749 363.376 901.389 363.744 900.157 364.48C898.925 365.2 897.917 366.184 897.133 367.432C896.349 368.664 895.869 370.04 895.693 371.56ZM941.183 370.144V385H937.823V370.816C937.823 369.504 937.503 368.312 936.863 367.24C936.223 366.168 935.367 365.312 934.295 364.672C933.223 364.032 932.031 363.712 930.719 363.712C929.423 363.712 928.231 364.032 927.143 364.672C926.071 365.312 925.215 366.168 924.575 367.24C923.935 368.312 923.615 369.504 923.615 370.816V385H920.255V361H923.615V364.312C924.463 363.096 925.567 362.128 926.927 361.408C928.287 360.688 929.767 360.328 931.367 360.328C933.175 360.328 934.823 360.768 936.311 361.648C937.799 362.528 938.983 363.712 939.863 365.2C940.743 366.688 941.183 368.336 941.183 370.144ZM965.273 349H968.633V385H965.273V380.512C964.441 382.048 963.297 383.288 961.841 384.232C960.401 385.16 958.689 385.624 956.705 385.624C954.961 385.624 953.329 385.296 951.809 384.64C950.289 383.984 948.945 383.08 947.777 381.928C946.625 380.76 945.721 379.416 945.065 377.896C944.409 376.376 944.081 374.744 944.081 373C944.081 371.256 944.409 369.624 945.065 368.104C945.721 366.568 946.625 365.224 947.777 364.072C948.945 362.904 950.289 361.992 951.809 361.336C953.329 360.68 954.961 360.352 956.705 360.352C958.689 360.352 960.401 360.824 961.841 361.768C963.297 362.696 964.441 363.92 965.273 365.44V349ZM956.729 382.36C958.441 382.36 959.913 381.944 961.145 381.112C962.377 380.264 963.321 379.128 963.977 377.704C964.649 376.28 964.985 374.712 964.985 373C964.985 371.24 964.649 369.656 963.977 368.248C963.305 366.824 962.353 365.696 961.121 364.864C959.889 364.032 958.425 363.616 956.729 363.616C955.033 363.616 953.489 364.04 952.097 364.888C950.705 365.72 949.593 366.848 948.761 368.272C947.929 369.696 947.513 371.272 947.513 373C947.513 374.744 947.937 376.328 948.785 377.752C949.633 379.16 950.753 380.28 952.145 381.112C953.553 381.944 955.081 382.36 956.729 382.36ZM993.936 361H997.296V385H993.936L993.816 380.536C993.032 382.056 991.936 383.288 990.528 384.232C989.12 385.16 987.44 385.624 985.488 385.624C983.728 385.624 982.08 385.296 980.544 384.64C979.008 383.968 977.656 383.048 976.488 381.88C975.32 380.712 974.408 379.36 973.752 377.824C973.096 376.288 972.768 374.64 972.768 372.88C972.768 371.152 973.088 369.528 973.728 368.008C974.384 366.488 975.28 365.152 976.416 364C977.568 362.848 978.896 361.952 980.4 361.312C981.92 360.656 983.544 360.328 985.272 360.328C987.272 360.328 989.016 360.808 990.504 361.768C991.992 362.712 993.176 363.952 994.056 365.488L993.936 361ZM985.416 382.36C987.128 382.36 988.6 381.944 989.832 381.112C991.064 380.264 992.008 379.128 992.664 377.704C993.336 376.28 993.672 374.712 993.672 373C993.672 371.24 993.336 369.656 992.664 368.248C991.992 366.824 991.04 365.696 989.808 364.864C988.576 364.032 987.112 363.616 985.416 363.616C983.72 363.616 982.168 364.04 980.76 364.888C979.368 365.72 978.256 366.848 977.424 368.272C976.608 369.696 976.2 371.272 976.2 373C976.2 374.744 976.624 376.328 977.472 377.752C978.32 379.16 979.44 380.28 980.832 381.112C982.24 381.944 983.768 382.36 985.416 382.36ZM1018.77 378.976L1021.77 380.608C1020.68 382.128 1019.29 383.344 1017.61 384.256C1015.95 385.168 1014.14 385.624 1012.19 385.624C1009.98 385.624 1007.97 385.056 1006.14 383.92C1004.33 382.784 1002.89 381.264 1001.8 379.36C1000.73 377.44 1000.19 375.32 1000.19 373C1000.19 371.24 1000.5 369.6 1001.13 368.08C1001.75 366.544 1002.61 365.2 1003.69 364.048C1004.8 362.88 1006.08 361.968 1007.53 361.312C1008.99 360.656 1010.54 360.328 1012.19 360.328C1014.14 360.328 1015.95 360.784 1017.61 361.696C1019.29 362.608 1020.68 363.832 1021.77 365.368L1018.77 366.976C1017.93 365.92 1016.93 365.112 1015.77 364.552C1014.6 363.976 1013.41 363.688 1012.19 363.688C1010.57 363.688 1009.11 364.12 1007.8 364.984C1006.49 365.832 1005.45 366.96 1004.68 368.368C1003.93 369.776 1003.55 371.32 1003.55 373C1003.55 374.68 1003.93 376.224 1004.7 377.632C1005.49 379.04 1006.53 380.168 1007.85 381.016C1009.16 381.848 1010.61 382.264 1012.19 382.264C1013.5 382.264 1014.73 381.96 1015.89 381.352C1017.04 380.744 1018 379.952 1018.77 378.976ZM1036.33 385.624C1034.12 385.624 1032.11 385.056 1030.28 383.92C1028.47 382.784 1027.03 381.264 1025.94 379.36C1024.87 377.44 1024.33 375.32 1024.33 373C1024.33 371.24 1024.64 369.6 1025.27 368.08C1025.89 366.544 1026.75 365.2 1027.83 364.048C1028.94 362.88 1030.22 361.968 1031.67 361.312C1033.13 360.656 1034.68 360.328 1036.33 360.328C1038.11 360.328 1039.74 360.68 1041.23 361.384C1042.73 362.088 1044.02 363.072 1045.09 364.336C1046.18 365.6 1046.99 367.08 1047.54 368.776C1048.1 370.472 1048.33 372.304 1048.23 374.272H1027.88C1028.07 375.792 1028.55 377.152 1029.32 378.352C1030.11 379.552 1031.1 380.504 1032.3 381.208C1033.51 381.896 1034.86 382.248 1036.33 382.264C1037.93 382.264 1039.37 381.848 1040.65 381.016C1041.95 380.184 1042.99 379.04 1043.77 377.584L1047.18 378.376C1046.22 380.504 1044.77 382.248 1042.83 383.608C1040.9 384.952 1038.73 385.624 1036.33 385.624ZM1027.79 371.56H1044.85C1044.74 370.072 1044.28 368.712 1043.48 367.48C1042.7 366.232 1041.68 365.24 1040.43 364.504C1039.19 363.752 1037.82 363.376 1036.33 363.376C1034.84 363.376 1033.48 363.744 1032.25 364.48C1031.02 365.2 1030.01 366.184 1029.23 367.432C1028.44 368.664 1027.96 370.04 1027.79 371.56ZM1064.11 385L1070.62 351.4H1073.07L1082.47 376.12L1091.83 351.4H1094.28L1100.81 385H1097.38L1092.41 359.296L1083.53 382.792H1081.37L1072.49 359.296L1067.52 385H1064.11ZM1124.39 361H1127.75V385H1124.39L1124.27 380.536C1123.49 382.056 1122.39 383.288 1120.98 384.232C1119.57 385.16 1117.89 385.624 1115.94 385.624C1114.18 385.624 1112.53 385.296 1111 384.64C1109.46 383.968 1108.11 383.048 1106.94 381.88C1105.77 380.712 1104.86 379.36 1104.21 377.824C1103.55 376.288 1103.22 374.64 1103.22 372.88C1103.22 371.152 1103.54 369.528 1104.18 368.008C1104.84 366.488 1105.73 365.152 1106.87 364C1108.02 362.848 1109.35 361.952 1110.85 361.312C1112.37 360.656 1114 360.328 1115.73 360.328C1117.73 360.328 1119.47 360.808 1120.96 361.768C1122.45 362.712 1123.63 363.952 1124.51 365.488L1124.39 361ZM1115.87 382.36C1117.58 382.36 1119.05 381.944 1120.29 381.112C1121.52 380.264 1122.46 379.128 1123.12 377.704C1123.79 376.28 1124.13 374.712 1124.13 373C1124.13 371.24 1123.79 369.656 1123.12 368.248C1122.45 366.824 1121.49 365.696 1120.26 364.864C1119.03 364.032 1117.57 363.616 1115.87 363.616C1114.17 363.616 1112.62 364.04 1111.21 364.888C1109.82 365.72 1108.71 366.848 1107.88 368.272C1107.06 369.696 1106.65 371.272 1106.65 373C1106.65 374.744 1107.08 376.328 1107.93 377.752C1108.77 379.16 1109.89 380.28 1111.29 381.112C1112.69 381.944 1114.22 382.36 1115.87 382.36ZM1153.48 370.144V385H1150.12V370.816C1150.12 369.504 1149.8 368.312 1149.16 367.24C1148.52 366.168 1147.66 365.312 1146.59 364.672C1145.52 364.032 1144.33 363.712 1143.02 363.712C1141.72 363.712 1140.53 364.032 1139.44 364.672C1138.37 365.312 1137.51 366.168 1136.87 367.24C1136.23 368.312 1135.91 369.504 1135.91 370.816V385H1132.55V361H1135.91V364.312C1136.76 363.096 1137.86 362.128 1139.22 361.408C1140.58 360.688 1142.06 360.328 1143.66 360.328C1145.47 360.328 1147.12 360.768 1148.61 361.648C1150.1 362.528 1151.28 363.712 1152.16 365.2C1153.04 366.688 1153.48 368.336 1153.48 370.144ZM1177.55 361H1180.91V385H1177.55L1177.43 380.536C1176.64 382.056 1175.55 383.288 1174.14 384.232C1172.73 385.16 1171.05 385.624 1169.1 385.624C1167.34 385.624 1165.69 385.296 1164.15 384.64C1162.62 383.968 1161.27 383.048 1160.1 381.88C1158.93 380.712 1158.02 379.36 1157.36 377.824C1156.71 376.288 1156.38 374.64 1156.38 372.88C1156.38 371.152 1156.7 369.528 1157.34 368.008C1157.99 366.488 1158.89 365.152 1160.03 364C1161.18 362.848 1162.51 361.952 1164.01 361.312C1165.53 360.656 1167.15 360.328 1168.88 360.328C1170.88 360.328 1172.63 360.808 1174.11 361.768C1175.6 362.712 1176.79 363.952 1177.67 365.488L1177.55 361ZM1169.03 382.36C1170.74 382.36 1172.21 381.944 1173.44 381.112C1174.67 380.264 1175.62 379.128 1176.27 377.704C1176.95 376.28 1177.28 374.712 1177.28 373C1177.28 371.24 1176.95 369.656 1176.27 368.248C1175.6 366.824 1174.65 365.696 1173.42 364.864C1172.19 364.032 1170.72 363.616 1169.03 363.616C1167.33 363.616 1165.78 364.04 1164.37 364.888C1162.98 365.72 1161.87 366.848 1161.03 368.272C1160.22 369.696 1159.81 371.272 1159.81 373C1159.81 374.744 1160.23 376.328 1161.08 377.752C1161.93 379.16 1163.05 380.28 1164.44 381.112C1165.85 381.944 1167.38 382.36 1169.03 382.36ZM1204.32 361H1207.68V385.888C1207.68 387.424 1207.34 388.864 1206.67 390.208C1206.02 391.552 1205.12 392.728 1203.98 393.736C1202.86 394.76 1201.58 395.56 1200.14 396.136C1198.7 396.712 1197.21 397 1195.66 397C1193.99 397 1192.38 396.616 1190.83 395.848C1189.28 395.096 1187.93 394.088 1186.78 392.824C1185.64 391.56 1184.83 390.16 1184.35 388.624L1187.45 387.208C1187.75 388.408 1188.32 389.488 1189.15 390.448C1190 391.424 1190.99 392.192 1192.13 392.752C1193.28 393.328 1194.46 393.616 1195.66 393.616C1196.76 393.616 1197.82 393.408 1198.85 392.992C1199.89 392.592 1200.82 392.04 1201.63 391.336C1202.46 390.632 1203.12 389.808 1203.6 388.864C1204.08 387.936 1204.32 386.944 1204.32 385.888V380.584C1203.49 382.088 1202.36 383.304 1200.94 384.232C1199.53 385.16 1197.89 385.624 1196.02 385.624C1194.34 385.624 1192.75 385.296 1191.26 384.64C1189.79 383.984 1188.5 383.08 1187.38 381.928C1186.26 380.76 1185.38 379.416 1184.74 377.896C1184.11 376.376 1183.8 374.744 1183.8 373C1183.8 371.256 1184.11 369.624 1184.74 368.104C1185.38 366.568 1186.26 365.224 1187.38 364.072C1188.5 362.904 1189.79 361.992 1191.26 361.336C1192.75 360.68 1194.34 360.352 1196.02 360.352C1197.89 360.352 1199.53 360.816 1200.94 361.744C1202.36 362.656 1203.49 363.872 1204.32 365.392V361ZM1196.04 382.36C1197.7 382.36 1199.14 381.928 1200.34 381.064C1201.55 380.2 1202.49 379.056 1203.14 377.632C1203.8 376.208 1204.13 374.664 1204.13 373C1204.13 371.288 1203.79 369.728 1203.12 368.32C1202.46 366.896 1201.53 365.76 1200.31 364.912C1199.1 364.048 1197.67 363.616 1196.04 363.616C1194.41 363.616 1192.92 364.04 1191.58 364.888C1190.25 365.72 1189.19 366.848 1188.41 368.272C1187.62 369.696 1187.23 371.272 1187.23 373C1187.23 374.728 1187.63 376.304 1188.43 377.728C1189.23 379.136 1190.3 380.264 1191.62 381.112C1192.97 381.944 1194.44 382.36 1196.04 382.36ZM1223.78 385.624C1221.58 385.624 1219.56 385.056 1217.74 383.92C1215.93 382.784 1214.48 381.264 1213.39 379.36C1212.32 377.44 1211.78 375.32 1211.78 373C1211.78 371.24 1212.1 369.6 1212.72 368.08C1213.34 366.544 1214.2 365.2 1215.29 364.048C1216.39 362.88 1217.67 361.968 1219.13 361.312C1220.58 360.656 1222.14 360.328 1223.78 360.328C1225.56 360.328 1227.19 360.68 1228.68 361.384C1230.18 362.088 1231.47 363.072 1232.54 364.336C1233.63 365.6 1234.45 367.08 1234.99 368.776C1235.55 370.472 1235.78 372.304 1235.69 374.272H1215.34C1215.53 375.792 1216.01 377.152 1216.78 378.352C1217.56 379.552 1218.55 380.504 1219.75 381.208C1220.97 381.896 1222.31 382.248 1223.78 382.264C1225.38 382.264 1226.82 381.848 1228.1 381.016C1229.4 380.184 1230.44 379.04 1231.22 377.584L1234.63 378.376C1233.67 380.504 1232.22 382.248 1230.29 383.608C1228.35 384.952 1226.18 385.624 1223.78 385.624ZM1215.24 371.56H1232.3C1232.19 370.072 1231.74 368.712 1230.94 367.48C1230.15 366.232 1229.14 365.24 1227.89 364.504C1226.64 363.752 1225.27 363.376 1223.78 363.376C1222.3 363.376 1220.94 363.744 1219.7 364.48C1218.47 365.2 1217.46 366.184 1216.68 367.432C1215.9 368.664 1215.42 370.04 1215.24 371.56ZM1239.8 385V361H1243.16V364.312C1244.03 363.096 1245.13 362.128 1246.47 361.408C1247.82 360.688 1249.29 360.328 1250.89 360.328C1252.7 360.328 1254.35 360.776 1255.86 361.672C1257.36 362.552 1258.54 363.728 1259.39 365.2C1260.23 363.728 1261.4 362.552 1262.89 361.672C1264.38 360.776 1266.03 360.328 1267.83 360.328C1269.64 360.328 1271.29 360.768 1272.78 361.648C1274.27 362.528 1275.45 363.712 1276.33 365.2C1277.21 366.688 1277.65 368.336 1277.65 370.144V385H1274.29V370.888C1274.29 369.608 1273.98 368.424 1273.35 367.336C1272.73 366.248 1271.89 365.376 1270.83 364.72C1269.79 364.048 1268.63 363.712 1267.35 363.712C1266.07 363.712 1264.91 364.024 1263.85 364.648C1262.81 365.256 1261.98 366.104 1261.35 367.192C1260.73 368.264 1260.42 369.496 1260.42 370.888V385H1257.06V370.888C1257.06 369.496 1256.75 368.264 1256.12 367.192C1255.5 366.104 1254.66 365.256 1253.6 364.648C1252.55 364.024 1251.38 363.712 1250.1 363.712C1248.83 363.712 1247.67 364.048 1246.62 364.72C1245.56 365.376 1244.72 366.248 1244.1 367.336C1243.47 368.424 1243.16 369.608 1243.16 370.888V385H1239.8ZM1292.55 385.624C1290.34 385.624 1288.33 385.056 1286.5 383.92C1284.69 382.784 1283.25 381.264 1282.16 379.36C1281.09 377.44 1280.55 375.32 1280.55 373C1280.55 371.24 1280.86 369.6 1281.49 368.08C1282.11 366.544 1282.97 365.2 1284.05 364.048C1285.16 362.88 1286.44 361.968 1287.89 361.312C1289.35 360.656 1290.9 360.328 1292.55 360.328C1294.33 360.328 1295.96 360.68 1297.45 361.384C1298.95 362.088 1300.24 363.072 1301.31 364.336C1302.4 365.6 1303.21 367.08 1303.76 368.776C1304.32 370.472 1304.55 372.304 1304.45 374.272H1284.1C1284.29 375.792 1284.77 377.152 1285.54 378.352C1286.33 379.552 1287.32 380.504 1288.52 381.208C1289.73 381.896 1291.08 382.248 1292.55 382.264C1294.15 382.264 1295.59 381.848 1296.87 381.016C1298.17 380.184 1299.21 379.04 1299.99 377.584L1303.4 378.376C1302.44 380.504 1300.99 382.248 1299.05 383.608C1297.12 384.952 1294.95 385.624 1292.55 385.624ZM1284.01 371.56H1301.07C1300.96 370.072 1300.5 368.712 1299.7 367.48C1298.92 366.232 1297.9 365.24 1296.65 364.504C1295.41 363.752 1294.04 363.376 1292.55 363.376C1291.06 363.376 1289.7 363.744 1288.47 364.48C1287.24 365.2 1286.23 366.184 1285.45 367.432C1284.66 368.664 1284.18 370.04 1284.01 371.56ZM1329.5 370.144V385H1326.14V370.816C1326.14 369.504 1325.82 368.312 1325.18 367.24C1324.54 366.168 1323.68 365.312 1322.61 364.672C1321.54 364.032 1320.34 363.712 1319.03 363.712C1317.74 363.712 1316.54 364.032 1315.46 364.672C1314.38 365.312 1313.53 366.168 1312.89 367.24C1312.25 368.312 1311.93 369.504 1311.93 370.816V385H1308.57V361H1311.93V364.312C1312.78 363.096 1313.88 362.128 1315.24 361.408C1316.6 360.688 1318.08 360.328 1319.68 360.328C1321.49 360.328 1323.14 360.768 1324.62 361.648C1326.11 362.528 1327.3 363.712 1328.18 365.2C1329.06 366.688 1329.5 368.336 1329.5 370.144ZM1346.57 364.36H1340.83L1340.81 385H1337.45L1337.47 364.36H1333.13V361H1337.47L1337.45 353.464H1340.81L1340.83 361H1346.57V364.36Z" fill="black"/>
</svg>
